<svg width="31" height="32" viewBox="0 0 31 32" fill="none" xmlns="http://www.w3.org/2000/svg">
<path d="M1.82518 30.5643C1.40078 29.8624 1.18858 29.1605 1.18858 28.4267C1.18858 27.4696 1.58646 26.5444 2.38221 25.6191L21.5069 11.4855C23.0453 10.3689 23.8146 9.34796 23.8146 8.45464C23.8146 7.33799 22.6475 6.79561 20.3398 6.82752H3.68195C1.79866 6.85942 0.84375 5.74277 0.84375 3.50947C0.84375 2.48853 1.08248 1.62712 1.58646 0.957129C2.11696 0.319043 2.80661 0 3.68195 0H24.4512C26.361 0 27.926 0.925224 29.1727 2.80758C30.2867 4.4666 30.8438 6.41276 30.8438 8.64606C30.8438 11.1984 30.101 13.0169 28.6156 14.1017L6.12226 31.1705C5.40608 31.7129 4.71643 32 4.0533 32C3.15144 31.9681 2.40874 31.5214 1.82518 30.5643Z" fill="white"/>
</svg>
