<svg width="35" height="34" viewBox="0 0 35 34" fill="none" xmlns="http://www.w3.org/2000/svg">
<path d="M6.21112 4.592L17.1092 1.66881C21.0807 0.603552 23.9575 2.34135 25.0636 6.47378L28.0961 17.8029C29.2022 21.9353 27.5788 24.8802 23.6074 25.9455L12.7093 28.8687C8.73781 29.9339 5.87134 28.1934 4.76521 24.0609L1.73275 12.7318C0.626627 8.59938 2.23969 5.65725 6.21112 4.592Z" fill="#036D47"/>
<g filter="url(#filter0_b_88_770)">
<path d="M27.7826 6.93945H15.1722C10.5633 6.93945 7.96826 9.53722 7.96826 14.151V26.788C7.96826 31.3747 10.5633 33.9995 15.1722 33.9995H27.7961C32.3915 33.9995 35.0001 31.3747 35.0001 26.788V14.151C35.0001 9.53722 32.378 6.93945 27.7826 6.93945Z" fill="#008958"/>
</g>
<path d="M26.3416 24.36V27H15.7616V24.9L21.1616 19.8C21.7349 19.2533 22.1216 18.7867 22.3216 18.4C22.5216 18 22.6216 17.6067 22.6216 17.22C22.6216 16.66 22.4282 16.2333 22.0416 15.94C21.6682 15.6333 21.1149 15.48 20.3816 15.48C19.7682 15.48 19.2149 15.6 18.7216 15.84C18.2282 16.0667 17.8149 16.4133 17.4816 16.88L15.1216 15.36C15.6682 14.5467 16.4216 13.9133 17.3816 13.46C18.3416 12.9933 19.4416 12.76 20.6816 12.76C21.7216 12.76 22.6282 12.9333 23.4016 13.28C24.1882 13.6133 24.7949 14.0933 25.2216 14.72C25.6616 15.3333 25.8816 16.06 25.8816 16.9C25.8816 17.66 25.7216 18.3733 25.4016 19.04C25.0816 19.7067 24.4616 20.4667 23.5416 21.32L20.3216 24.36H26.3416Z" fill="white"/>
<defs>
<filter id="filter0_b_88_770" x="-16.0317" y="-17.0605" width="75.0317" height="75.0605" filterUnits="userSpaceOnUse" color-interpolation-filters="sRGB">
<feFlood flood-opacity="0" result="BackgroundImageFix"/>
<feGaussianBlur in="BackgroundImageFix" stdDeviation="12"/>
<feComposite in2="SourceAlpha" operator="in" result="effect1_backgroundBlur_88_770"/>
<feBlend mode="normal" in="SourceGraphic" in2="effect1_backgroundBlur_88_770" result="shape"/>
</filter>
</defs>
</svg>
