<svg width="35" height="34" viewBox="0 0 35 34" fill="none" xmlns="http://www.w3.org/2000/svg">
<path d="M6.21112 4.592L17.1092 1.66881C21.0807 0.603552 23.9575 2.34135 25.0636 6.47378L28.0961 17.8029C29.2022 21.9353 27.5788 24.8802 23.6074 25.9455L12.7093 28.8687C8.73781 29.9339 5.87134 28.1934 4.76521 24.0609L1.73275 12.7318C0.626627 8.59938 2.23969 5.65725 6.21112 4.592Z" fill="#036D47"/>
<g filter="url(#filter0_b_88_759)">
<path d="M27.7826 6.93945H15.1722C10.5633 6.93945 7.96826 9.53722 7.96826 14.151V26.788C7.96826 31.3747 10.5633 33.9995 15.1722 33.9995H27.7961C32.3915 33.9995 35.0001 31.3747 35.0001 26.788V14.151C35.0001 9.53722 32.378 6.93945 27.7826 6.93945Z" fill="#008958"/>
</g>
<path d="M23.264 13V27H20.024V15.6H17.224V13H23.264Z" fill="white"/>
<defs>
<filter id="filter0_b_88_759" x="-16.0317" y="-17.0605" width="75.0317" height="75.0605" filterUnits="userSpaceOnUse" color-interpolation-filters="sRGB">
<feFlood flood-opacity="0" result="BackgroundImageFix"/>
<feGaussianBlur in="BackgroundImageFix" stdDeviation="12"/>
<feComposite in2="SourceAlpha" operator="in" result="effect1_backgroundBlur_88_759"/>
<feBlend mode="normal" in="SourceGraphic" in2="effect1_backgroundBlur_88_759" result="shape"/>
</filter>
</defs>
</svg>
