<svg width="24" height="25" viewBox="0 0 24 25" fill="none" xmlns="http://www.w3.org/2000/svg">
<path fill-rule="evenodd" clip-rule="evenodd" d="M14.6907 2.0498H10.7642C8.98485 2.0498 7.57532 2.0498 6.47267 2.19792C5.33807 2.35088 4.41936 2.67228 3.69426 3.39641C2.97013 4.12151 2.64873 5.04022 2.49577 6.17482C2.34766 7.27843 2.34766 8.687 2.34766 10.4663V16.3291C2.34768 17.194 2.65641 18.0305 3.21829 18.688C3.78017 19.3455 4.55829 19.7809 5.41261 19.9158C5.54524 20.6554 5.80178 21.2866 6.31487 21.8007C6.89766 22.3835 7.63146 22.6332 8.50274 22.7513C9.34207 22.8636 10.4099 22.8636 11.7332 22.8636H14.744C16.0674 22.8636 17.1352 22.8636 17.9745 22.7513C18.8458 22.6332 19.5796 22.3835 20.1624 21.8007C20.7451 21.2179 20.9949 20.4841 21.113 19.6128C21.2253 18.7735 21.2253 17.7057 21.2253 16.3823V11.4354C21.2253 10.112 21.2253 9.04422 21.113 8.20489C20.9949 7.33361 20.7451 6.5998 20.1624 6.01702C19.6483 5.50393 19.0171 5.24739 18.2775 5.11476C18.1426 4.26044 17.7072 3.48232 17.0497 2.92044C16.3921 2.35856 15.5556 2.04983 14.6907 2.0498ZM16.7528 4.97439C16.6056 4.54456 16.3276 4.17152 15.9579 3.90749C15.5881 3.64346 15.1451 3.50166 14.6907 3.50193H10.8184C8.97226 3.50193 7.66148 3.50387 6.66532 3.63746C5.69239 3.76816 5.1309 4.01405 4.7214 4.42355C4.3119 4.83305 4.06601 5.39454 3.93532 6.36843C3.80172 7.36362 3.79978 8.67441 3.79978 10.5205V16.3291C3.79951 16.7834 3.94131 17.2265 4.20534 17.5962C4.46937 17.9659 4.84241 18.2439 5.27224 18.3911C5.25191 17.8005 5.25191 17.1326 5.25191 16.3823V11.4354C5.25191 10.112 5.25191 9.04422 5.36518 8.20489C5.48135 7.33361 5.73305 6.5998 6.31487 6.01702C6.89766 5.43423 7.63146 5.18446 8.50274 5.06733C9.34207 4.95406 10.4099 4.95406 11.7332 4.95406H14.744C15.4943 4.95406 16.1622 4.95406 16.7528 4.97439ZM7.34104 7.04512C7.6092 6.77696 7.98482 6.60271 8.69636 6.50687C9.42629 6.40909 10.3963 6.40716 11.7855 6.40716H14.6898C16.079 6.40716 17.048 6.40909 17.7799 6.50687C18.4905 6.60271 18.8661 6.77793 19.1343 7.04512C19.4024 7.31328 19.5767 7.6889 19.6725 8.40044C19.7703 9.13038 19.7722 10.1004 19.7722 11.4896V16.33C19.7722 17.7192 19.7703 18.6883 19.6725 19.4202C19.5767 20.1307 19.4014 20.5063 19.1343 20.7745C18.8661 21.0427 18.4905 21.2169 17.7789 21.3128C17.048 21.4105 16.079 21.4125 14.6898 21.4125H11.7855C10.3963 21.4125 9.42629 21.4105 8.69539 21.3128C7.98482 21.2169 7.6092 21.0417 7.34104 20.7745C7.07288 20.5063 6.89862 20.1307 6.80278 19.4192C6.70501 18.6883 6.70307 17.7192 6.70307 16.33V11.4896C6.70307 10.1004 6.70501 9.13038 6.80278 8.39948C6.89862 7.6889 7.07385 7.31328 7.34104 7.04512Z" fill="white"/>
</svg>
