<svg width="21" height="21" viewBox="0 0 21 21" fill="none" xmlns="http://www.w3.org/2000/svg">
<g id="solar:download-outline">
<path id="Vector" fill-rule="evenodd" clip-rule="evenodd" d="M10.433 1.52051C10.5944 1.52051 10.7492 1.58652 10.8633 1.70401C10.9775 1.82151 11.0416 1.98086 11.0416 2.14702V11.3134L12.4049 9.67525C12.4569 9.61272 12.5204 9.56135 12.5916 9.52407C12.6629 9.48679 12.7407 9.46432 12.8204 9.45796C12.9001 9.4516 12.9803 9.46147 13.0563 9.487C13.1323 9.51253 13.2027 9.55322 13.2634 9.60675C13.3242 9.66029 13.3741 9.72561 13.4103 9.799C13.4465 9.87239 13.4684 9.9524 13.4745 10.0345C13.4807 10.1165 13.4711 10.1991 13.4463 10.2773C13.4215 10.3556 13.382 10.428 13.33 10.4906L10.8955 13.4143C10.8384 13.4831 10.7675 13.5383 10.6876 13.5762C10.6078 13.614 10.5209 13.6336 10.433 13.6336C10.3451 13.6336 10.2582 13.614 10.1783 13.5762C10.0985 13.5383 10.0276 13.4831 9.97043 13.4143L7.53596 10.4906C7.48396 10.428 7.44443 10.3556 7.41963 10.2773C7.39483 10.1991 7.38524 10.1165 7.39142 10.0345C7.3976 9.9524 7.41942 9.87239 7.45564 9.799C7.49186 9.72561 7.54176 9.66029 7.6025 9.60675C7.66325 9.55322 7.73364 9.51253 7.80966 9.487C7.88568 9.46147 7.96584 9.4516 8.04556 9.45796C8.12529 9.46432 8.20301 9.48679 8.2743 9.52407C8.34559 9.56135 8.40905 9.61272 8.46106 9.67525L9.82436 11.3126V2.14702C9.82436 1.98086 9.88848 1.82151 10.0026 1.70401C10.1168 1.58652 10.2716 1.52051 10.433 1.52051ZM6.37229 7.36967C6.5337 7.36878 6.68885 7.43394 6.80359 7.55081C6.91834 7.66768 6.98329 7.82668 6.98415 7.99285C6.98501 8.15901 6.92171 8.31872 6.80818 8.43684C6.69466 8.55496 6.54019 8.62182 6.37878 8.6227C5.49182 8.62772 4.86292 8.65111 4.38495 8.74132C3.92565 8.82904 3.65867 8.96854 3.46148 9.17153C3.23669 9.40293 3.09063 9.72788 3.01029 10.341C2.92833 10.9717 2.92671 11.8079 2.92671 13.0067V13.842C2.92671 15.0416 2.92833 15.8778 3.01029 16.5085C3.09063 17.1216 3.23751 17.4457 3.46148 17.678C3.68626 17.9085 4.00112 18.0589 4.59756 18.1416C5.20942 18.2268 6.02253 18.2276 7.18702 18.2276H13.6789C14.8434 18.2276 15.6557 18.2268 16.2692 18.1416C16.8648 18.0589 17.1797 17.9085 17.4045 17.6771C17.6293 17.4457 17.7753 17.1216 17.8557 16.5085C17.9376 15.8778 17.9392 15.0416 17.9392 13.842V13.0067C17.9392 11.8079 17.9376 10.9717 17.8557 10.3402C17.7753 9.72788 17.6284 9.40293 17.4045 9.17153C17.2065 8.96854 16.9403 8.82904 16.481 8.74132C16.003 8.65111 15.3741 8.62772 14.4872 8.6227C14.4072 8.62227 14.3282 8.60563 14.2545 8.57373C14.1808 8.54184 14.114 8.49533 14.0578 8.43684C14.0016 8.37835 13.9571 8.30904 13.9269 8.23286C13.8967 8.15668 13.8814 8.07512 13.8818 7.99285C13.8822 7.91057 13.8984 7.82919 13.9294 7.75334C13.9604 7.6775 14.0055 7.60868 14.0624 7.55081C14.1192 7.49294 14.1865 7.44716 14.2605 7.41608C14.3345 7.385 14.4137 7.36923 14.4937 7.36967C15.3717 7.37468 16.1028 7.3964 16.7009 7.50917C17.316 7.62612 17.8394 7.84749 18.2655 8.28606C18.754 8.78811 18.9633 9.42214 19.0623 10.174C19.1565 10.8974 19.1565 11.8188 19.1565 12.9607V13.888C19.1565 15.0307 19.1565 15.9513 19.0623 16.6755C18.9633 17.4274 18.754 18.0606 18.2655 18.5634C17.7769 19.0663 17.1618 19.2818 16.4315 19.3838C15.7279 19.4807 14.8329 19.4807 13.7236 19.4807H7.14239C6.03308 19.4807 5.13801 19.4807 4.43445 19.3838C3.70411 19.2827 3.089 19.0663 2.60049 18.5634C2.11197 18.0606 1.90261 17.4274 1.80442 16.6755C1.70947 15.9513 1.70947 15.0299 1.70947 13.888V12.9607C1.70947 11.8188 1.70947 10.8974 1.80442 10.1731C1.9018 9.4213 2.11278 8.7881 2.60049 8.28522C3.02652 7.84749 3.54993 7.62529 4.16504 7.50917C4.7631 7.3964 5.49426 7.37468 6.37229 7.36967Z" fill="white"/>
</g>
</svg>
