<svg width="75" height="76" viewBox="0 0 75 76" fill="none" xmlns="http://www.w3.org/2000/svg">
<g id="Wallet">
<g id="Iconly/Light-Outline/Wallet">
<g id="Wallet_2">
<path id="Combined-Shape" fill-rule="evenodd" clip-rule="evenodd" d="M52.0053 9.5C62.3396 9.5 70.7459 18.0183 70.7459 28.4937V51.2208C70.7459 61.693 62.3396 70.2145 52.0053 70.2145H24.9928C14.6584 70.2145 6.24902 61.693 6.24902 51.2208V28.4937C6.24902 18.0183 14.6584 9.5 24.9928 9.5H52.0053ZM52.0053 14.25H24.9928C17.2428 14.25 10.9365 20.6403 10.9365 28.4937V51.2208C10.9365 59.0742 17.2428 65.4645 24.9928 65.4645H52.0053C59.7553 65.4645 66.0584 59.0742 66.0584 51.2208V50.3342L55.7525 50.3361C49.8243 50.3361 44.9993 45.4499 44.9962 39.4459C44.9962 33.4356 49.8212 28.5462 55.7525 28.5431L66.0584 28.5412V28.4937C66.0584 20.6403 59.7553 14.25 52.0053 14.25ZM66.0584 33.2912L55.7525 33.2931C52.4056 33.2962 49.6837 36.0544 49.6837 39.4427C49.6837 42.8279 52.4087 45.5861 55.7525 45.5861L66.0584 45.5842V33.2912ZM57.1825 36.8714C58.4762 36.8714 59.5262 37.9354 59.5262 39.2464C59.5262 40.5574 58.4762 41.6214 57.1825 41.6214H56.2075C54.9137 41.6214 53.8637 40.5574 53.8637 39.2464C53.8637 37.9354 54.9137 36.8714 56.2075 36.8714H57.1825ZM39.6396 23.8706C40.9334 23.8706 41.9834 24.9346 41.9834 26.2456C41.9834 27.5567 40.9334 28.6206 39.6396 28.6206H22.7678C21.474 28.6206 20.424 27.5567 20.424 26.2456C20.424 24.9346 21.474 23.8706 22.7678 23.8706H39.6396Z" fill="url(#paint0_linear_88_1629)"/>
</g>
</g>
</g>
<defs>
<linearGradient id="paint0_linear_88_1629" x1="38.4975" y1="9.5" x2="38.4975" y2="70.2145" gradientUnits="userSpaceOnUse">
<stop stop-color="#62ECFF"/>
<stop offset="0.831502" stop-color="#62ECFF" stop-opacity="0"/>
</linearGradient>
</defs>
</svg>
