<svg width="66" height="66" viewBox="0 0 66 66" fill="none" xmlns="http://www.w3.org/2000/svg">
<g id="Image 2">
<g id="Iconly/Light-Outline/Image-2">
<g id="Image-2">
<path id="Combined-Shape" fill-rule="evenodd" clip-rule="evenodd" d="M44.8315 5.5C49.2535 5.5 53.0677 6.97675 55.859 9.7735C58.7767 12.694 60.3772 16.9428 60.3717 21.7388L60.3758 40.9788C60.3806 41.0529 60.3814 41.1271 60.3783 41.2012L60.3717 44.1375C60.3717 53.8478 54.121 60.3735 44.8177 60.3735H21.0412C11.7462 60.3735 5.50098 53.8478 5.50098 44.1375V21.736C5.50098 12.0257 11.7462 5.5 21.0412 5.5H44.8315ZM45.5921 35.2888C43.9751 35.2888 42.0776 37.9646 40.3974 40.3268C38.0929 43.5718 35.7086 46.9296 32.1171 46.9296C29.6889 46.9296 27.4641 45.9946 25.5034 45.1668C22.3849 43.8523 20.9714 43.4316 19.5881 44.5701C16.8191 46.8518 14.0831 51.0068 12.8259 53.0515C14.8102 55.0973 17.6289 56.2485 21.0412 56.2485H44.8177C51.7615 56.2485 56.2467 51.4965 56.2467 44.1375L56.2467 41.9403L56.1833 41.8734C53.7759 39.3931 49.6189 35.2888 45.5921 35.2888ZM44.8315 9.625H21.0412C14.1085 9.625 9.62598 14.3797 9.62598 21.736V44.1375C9.62598 45.9761 9.90579 47.652 10.4337 49.1317C12.0251 46.7289 14.4286 43.4758 16.9674 41.3856C20.4104 38.5531 24.1174 40.1096 27.1039 41.3663C28.8611 42.1061 30.5221 42.8046 32.1171 42.8046C33.5801 42.8046 35.4144 40.2196 37.0369 37.9398C39.2891 34.7608 41.8466 31.1638 45.5921 31.1638C49.7026 31.1638 53.4256 33.6899 56.2497 36.1967L56.2467 21.736C56.2522 17.9877 55.1082 14.8583 52.9412 12.6885C50.9392 10.6838 48.137 9.625 44.8315 9.625ZM24.3577 17.0211C28.293 17.0239 31.494 20.2249 31.4967 24.1574C31.4967 28.0926 28.2957 31.2964 24.3577 31.2964C20.4197 31.2964 17.2187 28.0954 17.2187 24.1601C17.2187 20.2221 20.4197 17.0211 24.3577 17.0211ZM24.355 21.1461C22.694 21.1461 21.3437 22.4964 21.3437 24.1601C21.3437 25.8211 22.694 27.1714 24.3577 27.1714C26.0187 27.1714 27.3717 25.8211 27.3717 24.1629C27.369 22.4991 26.016 21.1489 24.355 21.1461Z" fill="url(#paint0_linear_88_1619)"/>
</g>
</g>
</g>
<defs>
<linearGradient id="paint0_linear_88_1619" x1="32.9406" y1="5.5" x2="32.9406" y2="60.3735" gradientUnits="userSpaceOnUse">
<stop stop-color="#62ECFF"/>
<stop offset="0.831502" stop-color="#62ECFF" stop-opacity="0"/>
</linearGradient>
</defs>
</svg>
