<svg width="78" height="78" viewBox="0 0 78 78" fill="none" xmlns="http://www.w3.org/2000/svg">
<g id="Video">
<g id="Iconly/Light-Outline/Video">
<g id="Video_2">
<path id="Combined-Shape" fill-rule="evenodd" clip-rule="evenodd" d="M26.2903 16.2547L27.8189 16.2566C28.0802 16.257 28.3444 16.2574 28.6111 16.2578L30.2356 16.2604C33.8002 16.2665 37.597 16.2749 40.4907 16.2809L41.758 16.2835C41.9572 16.2839 42.1499 16.2842 42.3358 16.2846C49.6483 15.7711 56.2491 21.1986 56.8373 28.4819C56.8428 28.5566 56.8476 28.9805 56.8516 29.7516L63.598 24.2266C65.561 22.6179 68.2032 22.3026 70.4945 23.3849C72.7857 24.4736 74.2092 26.7226 74.206 29.2576L74.167 53.1419C74.1637 55.6769 72.737 57.9259 70.449 59.0049C69.552 59.4306 68.603 59.6354 67.6605 59.6354C66.1947 59.6354 64.7485 59.1316 63.5557 58.1534L56.8667 52.6031C56.8666 52.6971 56.8666 52.7915 56.8666 52.8861C57.0031 56.3181 55.7811 59.6234 53.4216 62.1909C50.9418 64.8916 47.5228 66.4614 43.7983 66.6141C43.7351 66.6186 43.3792 66.6217 42.795 66.6236L41.511 66.6258C41.0102 66.6262 40.4412 66.6262 39.8179 66.6259L37.0686 66.6233C36.8209 66.623 36.5692 66.6226 36.3141 66.6223L34.7463 66.6198C31.0108 66.6135 26.8031 66.6037 23.5409 66.5966L22.2048 66.5938C21.7815 66.5929 21.3816 66.5921 21.0093 66.5914C20.6648 66.6174 20.3203 66.6304 19.9758 66.6304C13.1053 66.6336 7.11232 61.3686 6.54682 54.4624L6.54632 54.4554L6.54328 54.3909C6.54305 54.3839 6.54282 54.3762 6.54259 54.3676L6.54035 54.2652C6.5401 54.2507 6.53983 54.2351 6.53957 54.2181L6.53711 54.0289C6.53683 54.0034 6.53655 53.9764 6.53626 53.9476L6.53366 53.6404C6.53337 53.6006 6.53308 53.5587 6.53278 53.5147L6.53101 53.2244C6.53072 53.1715 6.53042 53.1162 6.53013 53.0585L6.52749 52.4703C6.5272 52.397 6.52691 52.3208 6.52662 52.2418L6.52408 51.4503C6.52381 51.3531 6.52353 51.2527 6.52326 51.149L6.52091 50.1232C6.52065 49.9986 6.52041 49.8705 6.52016 49.7386L6.51744 47.9692C6.51723 47.8057 6.51702 47.638 6.51683 47.466L6.51431 44.5518C6.51417 44.3343 6.51404 44.112 6.51392 43.8848L6.51387 31.1516C6.51401 30.7654 6.51416 30.3728 6.51432 29.9736C6.35832 26.6229 7.57382 23.2949 9.94632 20.7046C12.4228 18.0006 15.8386 16.4244 19.5663 16.2651C19.6165 16.2615 19.854 16.2588 20.2458 16.2568L20.9451 16.2544C21.0796 16.254 21.2226 16.2538 21.3738 16.2535L25.5601 16.2539C25.7992 16.2541 26.0428 16.2544 26.2903 16.2547ZM42.5113 21.1531C38.408 21.1471 33.3908 21.14 29.1092 21.1353L26.8566 21.133C26.4967 21.1327 26.1453 21.1324 25.8037 21.1321L20.1517 21.1323C19.939 21.1332 19.8014 21.1347 19.7483 21.1369C17.3498 21.2376 15.1366 22.2549 13.5408 23.9969C12.0523 25.6251 11.2853 27.7051 11.3861 29.8631L11.3888 42.4177C11.3889 42.6949 11.3891 42.9701 11.3892 43.2431L11.3922 47.1237C11.3924 47.3652 11.3927 47.6026 11.3929 47.8357L11.3946 49.1782C11.3949 49.3922 11.3952 49.6011 11.3955 49.8045L11.3987 51.4781C11.4022 52.9849 11.4065 53.9622 11.4121 54.1504C11.7826 58.6516 16.0011 62.0934 20.8306 61.7229C21.3413 61.7236 21.8661 61.7244 22.4017 61.7252L24.0382 61.7278C25.4239 61.7301 26.858 61.7325 28.2911 61.7349L30.0071 61.7378C30.8617 61.7392 31.7089 61.7406 32.538 61.7419L34.1687 61.7443C34.4355 61.7447 34.6994 61.7451 34.9601 61.7455L36.4829 61.7475C36.7292 61.7478 36.9716 61.7481 37.2096 61.7483L42.9473 61.7482C43.3226 61.7469 43.5584 61.7449 43.6293 61.7424C46.0181 61.6449 48.2346 60.6309 49.8303 58.8921C51.3221 57.2704 52.0891 55.1903 51.9948 53.0421L51.992 52.9885L51.9914 37.2709C51.9912 37.0156 51.9911 36.7636 51.9909 36.5153L51.9885 33.7338C51.9882 33.5205 51.988 33.3122 51.9877 33.1094L51.9849 31.4409C51.9839 30.9402 51.9827 30.4982 51.9814 30.1246L51.9787 29.4714C51.9767 29.1005 51.9745 28.8627 51.9721 28.7809C51.6048 24.2569 47.3668 20.7729 42.5113 21.1531ZM66.6855 27.9999L56.8653 36.0121C56.8657 36.4114 56.8661 36.8265 56.8664 37.2573L56.8685 45.4072L66.6465 54.3866C67.3647 54.9716 68.0862 54.7311 68.3657 54.5946C68.6452 54.4646 69.292 54.0584 69.292 53.1354L69.331 29.2511C69.3342 28.3281 68.6842 27.9219 68.4047 27.7886C68.1285 27.6586 67.3972 27.4149 66.6855 27.9999Z" fill="url(#paint0_linear_88_1624)"/>
</g>
</g>
</g>
<defs>
<linearGradient id="paint0_linear_88_1624" x1="40.3535" y1="16.251" x2="40.3535" y2="66.6304" gradientUnits="userSpaceOnUse">
<stop stop-color="#62ECFF"/>
<stop offset="0.831502" stop-color="#62ECFF" stop-opacity="0"/>
</linearGradient>
</defs>
</svg>
