<svg width="35" height="34" viewBox="0 0 35 34" fill="none" xmlns="http://www.w3.org/2000/svg">
<path d="M6.21112 4.592L17.1092 1.66881C21.0807 0.603552 23.9575 2.34135 25.0636 6.47378L28.0961 17.8029C29.2022 21.9353 27.5788 24.8802 23.6074 25.9455L12.7093 28.8687C8.73781 29.9339 5.87134 28.1934 4.76521 24.0609L1.73275 12.7318C0.626627 8.59938 2.23969 5.65725 6.21112 4.592Z" fill="#036D47"/>
<g filter="url(#filter0_b_41_320)">
<path d="M27.7826 6.93945H15.1722C10.5633 6.93945 7.96826 9.53722 7.96826 14.151V26.788C7.96826 31.3747 10.5633 33.9995 15.1722 33.9995H27.7961C32.3915 33.9995 35.0001 31.3747 35.0001 26.788V14.151C35.0001 9.53722 32.378 6.93945 27.7826 6.93945Z" fill="#008958"/>
</g>
<path d="M22.0234 27.4615C21.6215 27.4615 21.2835 27.3325 21.0094 27.0745C20.7536 26.798 20.6257 26.457 20.6257 26.0516V22.3469H16.9534C16.5514 22.3469 16.2134 22.2087 15.9393 21.9322C15.6836 21.6557 15.5557 21.3147 15.5557 20.9093C15.5557 20.5038 15.6836 20.172 15.9393 19.914C16.2134 19.6375 16.5514 19.4993 16.9534 19.4993H20.6257V15.7946C20.6257 15.4075 20.7628 15.0758 21.0368 14.7993C21.3292 14.5228 21.658 14.3846 22.0234 14.3846C22.4437 14.3846 22.7817 14.5228 23.0375 14.7993C23.2932 15.0574 23.4211 15.3891 23.4211 15.7946V19.4993H27.0935C27.4772 19.4993 27.8061 19.6375 28.0801 19.914C28.3725 20.1904 28.5186 20.5222 28.5186 20.9093C28.5186 21.3147 28.3725 21.6557 28.0801 21.9322C27.8061 22.2087 27.4772 22.3469 27.0935 22.3469H23.4211V26.0516C23.4211 26.457 23.2932 26.798 23.0375 27.0745C22.7817 27.3325 22.4437 27.4615 22.0234 27.4615Z" fill="white"/>
<defs>
<filter id="filter0_b_41_320" x="-16.0317" y="-17.0605" width="75.0317" height="75.0601" filterUnits="userSpaceOnUse" color-interpolation-filters="sRGB">
<feFlood flood-opacity="0" result="BackgroundImageFix"/>
<feGaussianBlur in="BackgroundImageFix" stdDeviation="12"/>
<feComposite in2="SourceAlpha" operator="in" result="effect1_backgroundBlur_41_320"/>
<feBlend mode="normal" in="SourceGraphic" in2="effect1_backgroundBlur_41_320" result="shape"/>
</filter>
</defs>
</svg>
